<svg preserveAspectRatio="none" width="100%" height="100%" overflow="visible" style="display: block;" viewBox="0 0 48 48" fill="none" xmlns="http://www.w3.org/2000/svg">
<g id="image">
<path id="Vector" d="M12 8H7C6.45 8 6 8.45 6 9V14H4V9C4 7.34 5.34 6 7 6H12V8ZM35 9C33.9 9 33 9.9 33 11V16H39C40.1 16 41 15.1 41 14V11C41 9.9 40.1 9 39 9H35ZM21 12C19.34 12 18 13.34 18 15C18 16.66 19.34 18 21 18C22.66 18 24 16.66 24 15C24 13.34 22.66 12 21 12ZM39.26 6.01C41.9 6.14 44 8.33 44 11V14.26C43.86 16.82 41.81 18.87 39.26 19H39H33L30 20.5V11C30 8.32 32.1 6.14 34.74 6.01H35H39H39.26ZM21 9C24.31 9 27 11.69 27 15C27 18.31 24.31 21 21 21C17.69 21 15 18.31 15 15C15 11.69 17.69 9 21 9ZM16.5 26C14.57 26 13 27.57 13 29.5V40H15V32H17V40H25V32H27V40H29V29.5C29 27.57 27.43 26 25.5 26H16.5ZM44 39C44 40.66 42.66 42 41 42H37V40H41C41.55 40 42 39.55 42 39V34H44V39ZM25.5 23C29.09 23 32 25.91 32 29.5V42H7C5.34 42 4 40.66 4 39V34H6V39C6 39.55 6.45 40 7 40H10V29.5C10 25.91 12.91 23 16.5 23H25.5Z" fill="var(--fill-0, black)"/>
</g>
</svg>
