<svg preserveAspectRatio="none" width="100%" height="100%" overflow="visible" style="display: block;" viewBox="0 0 48 48" fill="none" xmlns="http://www.w3.org/2000/svg">
<g id="image">
<path id="Vector" d="M24 14C27.71 14 30.95 16.02 32.67 19.02L33.28 16.74L35.21 17.26L33.67 23.01L27.92 21.47L28.44 19.54L31.05 20.24C29.7 17.72 27.05 16.01 23.99 16.01C20.51 16.01 17.54 18.23 16.45 21.34L15.51 21.01L14.57 20.68C15.94 16.8 19.65 14.01 24 14.01V14ZM20.07 26.53L19.55 28.46L16.94 27.76C18.29 30.28 20.94 32 24 32C27.48 32 30.45 29.78 31.54 26.67L32.48 27L33.42 27.33C32.05 31.21 28.34 34 23.99 34C20.28 34 17.04 31.98 15.32 28.98L14.71 31.26L12.78 30.74L14.32 24.99L20.07 26.53ZM20.4 6.01C20.17 6.06 20 6.26 20 6.5V7.11C19.7 11.34 15.18 13.94 11.38 12.08L11 11.88L10.84 11.79C10.6 11.65 10.3 11.73 10.16 11.97L6.66 18.03C6.52 18.27 6.6 18.57 6.84 18.71L7 18.8C11 21.11 11 26.88 7 29.19L6.84 29.28C6.6 29.42 6.52 29.72 6.66 29.96L10.16 36.02C10.28 36.23 10.53 36.32 10.75 36.24L10.84 36.2L11 36.11C15 33.8 20 36.69 20 41.31V41.59C20.05 41.79 20.2 41.94 20.4 41.98H20.5H27.5H27.6C27.8 41.93 27.95 41.78 27.99 41.58V41.48L28 41.3C28 36.68 33 33.79 37 36.1L37.16 36.19C37.37 36.31 37.63 36.26 37.78 36.09L37.84 36.01L41.34 29.95C41.46 29.74 41.41 29.48 41.24 29.33L41.16 29.27L41 29.18C37.13 26.94 37 21.45 40.64 19.01L41 18.78L41.16 18.69C41.37 18.57 41.46 18.32 41.38 18.1L41.34 18.01L37.84 11.95C37.7 11.71 37.4 11.63 37.16 11.77L37 11.86L36.62 12.06C32.82 13.92 28.3 11.32 28.01 7.09V6.66L28 6.48C28 6.24 27.83 6.04 27.6 5.99H27.5H20.5H20.4V6.01ZM27.5 3C29.43 3 31 4.57 31 6.5V6.68C31 8.99 33.5 10.43 35.5 9.28L35.66 9.19L35.82 9.1C37.42 8.28 39.37 8.81 40.35 10.31L40.44 10.46L43.94 16.52C44.88 18.14 44.37 20.2 42.81 21.21L42.66 21.3L42.5 21.39C40.5 22.54 40.5 25.43 42.5 26.59L42.66 26.68L42.81 26.77C44.31 27.74 44.84 29.7 44.02 31.3L43.93 31.46L40.43 37.52C39.49 39.14 37.46 39.73 35.81 38.89L35.65 38.8L35.49 38.71C33.49 37.56 30.99 39 30.99 41.31V41.49C30.99 43.42 29.42 44.99 27.49 44.99H20.49C18.56 44.99 16.99 43.42 16.99 41.49V41.31C16.99 39.07 14.64 37.65 12.68 38.61L12.49 38.71L12.33 38.8C10.71 39.74 8.65 39.23 7.64 37.67L7.55 37.52L4.05 31.46C3.08 29.79 3.66 27.65 5.33 26.68L5.49 26.59L5.67 26.48C7.43 25.3 7.43 22.69 5.67 21.51L5.49 21.4L5.33 21.31C3.66 20.34 3.08 18.2 4.05 16.53L7.55 10.47L7.64 10.32C8.61 8.82 10.57 8.29 12.17 9.11L12.33 9.2L12.49 9.29L12.68 9.39C14.64 10.35 16.99 8.93 16.99 6.69V6.51C16.99 4.58 18.56 3.01 20.49 3.01H27.49L27.5 3Z" fill="var(--fill-0, black)"/>
</g>
</svg>
