<svg preserveAspectRatio="none" width="100%" height="100%" overflow="visible" style="display: block;" viewBox="0 0 48 48" fill="none" xmlns="http://www.w3.org/2000/svg">
<g id="image">
<path id="Vector" fill-rule="evenodd" clip-rule="evenodd" d="M11.7741 16.9269L8.94345 14.5796L17.3234 12.3342L20.5147 14.5849L11.7741 16.9269ZM23.0294 13.9111L30.174 11.9967L26.9827 9.74598L19.8381 11.6604L23.0294 13.9111ZM37.8602 9.93719L32.6887 11.3229L29.4974 9.07217L37.0837 7.03941L37.8602 9.93719ZM39.6026 12.5761L14.6047 19.2743L15.4797 19.9999H42C43.1046 19.9999 44 20.8953 44 21.9999V41.0587C44 42.1633 43.1046 43.0587 42 43.0587H6C4.89543 43.0587 4 42.1633 4 41.0587V19V14.333C3.99999 13.4278 4.60799 12.6354 5.48236 12.4011L37.2732 3.88282C38.3401 3.59693 39.4368 4.2301 39.7227 5.29703L41.0168 10.1267C41.3027 11.1936 40.6695 12.2903 39.6026 12.5761ZM17.6935 23.1263L17.7969 22.9999H23.865L21.365 25.9999H15.3423L17.6935 23.1263ZM23.9685 25.9999L26.4685 22.9999H33.865L31.365 25.9999H23.9685ZM33.9685 25.9999H41V22.9999H36.4685L33.9685 25.9999ZM15.5165 22.6286L12.7581 25.9999H7V19L7.00001 15.5662L15.5165 22.6286ZM41 29H7V40H41V29ZM10.5 24C11.3284 24 12 23.3284 12 22.5C12 21.6716 11.3284 21 10.5 21C9.67157 21 9 21.6716 9 22.5C9 23.3284 9.67157 24 10.5 24Z" fill="var(--fill-0, #262626)"/>
</g>
</svg>
