<svg preserveAspectRatio="none" width="100%" height="100%" overflow="visible" style="display: block;" viewBox="0 0 48 48" fill="none" xmlns="http://www.w3.org/2000/svg">
<g id="image">
<path id="Vector" d="M20 26C21.1046 26 22 26.8954 22 28V40C22 41.1046 21.1046 42 20 42H8C6.89543 42 6 41.1046 6 40V28C6 26.8954 6.89543 26 8 26H20ZM35 33.0049H42.0049V35.0049H35V42H33V35.0049H26.0049V33.0049H33V26H35V33.0049ZM9 39H19V29H9V39ZM20 6C21.1046 6 22 6.89543 22 8V20C22 21.1046 21.1046 22 20 22H8C6.89543 22 6 21.1046 6 20V8C6 6.89543 6.89543 6 8 6H20ZM40 6C41.1046 6 42 6.89543 42 8V20C42 21.1046 41.1046 22 40 22H28C26.8954 22 26 21.1046 26 20V8C26 6.89543 26.8954 6 28 6H40ZM9 19H19V9H9V19ZM29 19H39V9H29V19Z" fill="var(--fill-0, #262626)"/>
</g>
</svg>
