<svg xmlns="http://www.w3.org/2000/svg" viewBox="0 0 1400 980" role="img" aria-labelledby="title desc">
  <title id="title">Sunflower valve module</title>
  <desc id="desc">A silver radial multi-port valve module on a dark studio background.</desc>
  <defs>
    <radialGradient id="studio" cx="44%" cy="40%" r="78%">
      <stop offset="0" stop-color="#343942"/>
      <stop offset="0.55" stop-color="#15181e"/>
      <stop offset="1" stop-color="#050609"/>
    </radialGradient>
    <linearGradient id="tube" x1="0" x2="1" y1="0" y2="0">
      <stop offset="0" stop-color="#343840"/>
      <stop offset="0.1" stop-color="#f7f7f5"/>
      <stop offset="0.27" stop-color="#9ca0a3"/>
      <stop offset="0.46" stop-color="#ffffff"/>
      <stop offset="0.66" stop-color="#8d9296"/>
      <stop offset="0.84" stop-color="#ececea"/>
      <stop offset="1" stop-color="#2a2d33"/>
    </linearGradient>
    <radialGradient id="disc" cx="39%" cy="30%" r="76%">
      <stop offset="0" stop-color="#ffffff"/>
      <stop offset="0.28" stop-color="#d6d5d1"/>
      <stop offset="0.52" stop-color="#f7f6f2"/>
      <stop offset="0.75" stop-color="#9ca0a4"/>
      <stop offset="1" stop-color="#5f656c"/>
    </radialGradient>
    <linearGradient id="brushed" x1="0" x2="1" y1="0" y2="1">
      <stop offset="0" stop-color="#f9f8f4"/>
      <stop offset="0.18" stop-color="#a9adb1"/>
      <stop offset="0.4" stop-color="#ffffff"/>
      <stop offset="0.68" stop-color="#8b9096"/>
      <stop offset="1" stop-color="#d9dad8"/>
    </linearGradient>
    <linearGradient id="blackMetal" x1="0" x2="1" y1="0" y2="1">
      <stop offset="0" stop-color="#4a4e56"/>
      <stop offset="0.34" stop-color="#101217"/>
      <stop offset="0.7" stop-color="#2a2e35"/>
      <stop offset="1" stop-color="#07080b"/>
    </linearGradient>
    <filter id="shadow" x="-30%" y="-30%" width="160%" height="160%">
      <feDropShadow dx="0" dy="28" stdDeviation="28" flood-color="#000000" flood-opacity="0.55"/>
    </filter>
    <filter id="blur" x="-20%" y="-20%" width="140%" height="140%">
      <feGaussianBlur stdDeviation="16"/>
    </filter>
    <symbol id="bolt" viewBox="-18 -18 36 36">
      <path d="M0-16 14-8v16L0 16-14 8V-8z" fill="url(#brushed)" stroke="#111318" stroke-width="2"/>
      <circle r="7" fill="#171a20"/>
    </symbol>
    <symbol id="port" viewBox="0 -44 210 88">
      <rect x="4" y="-34" width="166" height="68" rx="34" fill="url(#tube)" stroke="#eef0ef" stroke-opacity="0.42" stroke-width="3"/>
      <path d="M44-32v64M96-34v68M146-29v58" stroke="#151820" stroke-opacity="0.55" stroke-width="5"/>
      <circle cx="168" cy="0" r="39" fill="url(#tube)" stroke="#f3f4f2" stroke-opacity="0.55" stroke-width="5"/>
      <circle cx="168" cy="0" r="23" fill="#111318"/>
      <circle cx="168" cy="0" r="13" fill="#050607"/>
    </symbol>
  </defs>
  <rect width="1400" height="980" fill="url(#studio)"/>
  <path d="M83 863c196-62 447-93 760-93 206 0 359 21 459 63v147H83z" fill="#000000" opacity="0.18"/>
  <ellipse cx="565" cy="872" rx="380" ry="58" fill="#000000" opacity="0.48" filter="url(#blur)"/>
  <g filter="url(#shadow)">
    <path d="M760 395h186l88-48h249c48 0 87 39 87 87v126c0 48-39 87-87 87h-249l-88-48H760z" fill="url(#blackMetal)" stroke="#626770" stroke-width="3"/>
    <path d="M985 361v272M1114 350v294M1240 357v279" stroke="#06070a" stroke-width="19" opacity="0.55"/>
    <path d="M1023 385h242M1024 611h240" stroke="#f0f0ed" stroke-opacity="0.14" stroke-width="4"/>
    <g transform="translate(540 500)">
      <g>
        <use href="#port" transform="rotate(-112) translate(244 0)"/>
        <use href="#port" transform="rotate(-76) translate(244 0)"/>
        <use href="#port" transform="rotate(-40) translate(244 0)"/>
        <use href="#port" transform="rotate(-4) translate(244 0)"/>
        <use href="#port" transform="rotate(32) translate(244 0)"/>
        <use href="#port" transform="rotate(68) translate(244 0)"/>
        <use href="#port" transform="rotate(104) translate(244 0)"/>
        <use href="#port" transform="rotate(140) translate(244 0)"/>
        <use href="#port" transform="rotate(176) translate(244 0)"/>
        <use href="#port" transform="rotate(212) translate(244 0)"/>
      </g>
      <circle r="268" fill="url(#disc)" stroke="#ffffff" stroke-opacity="0.25" stroke-width="4"/>
      <circle r="200" fill="none" stroke="#3b4148" stroke-opacity="0.62" stroke-width="3"/>
      <circle r="118" fill="url(#brushed)" stroke="#ffffff" stroke-opacity="0.28" stroke-width="3"/>
      <circle r="65" fill="url(#tube)" stroke="#2e333a" stroke-width="5"/>
      <path d="M-21-302c64 7 124 27 178 57M-240 82c-20-62-19-125 2-184M84 237c-61 19-126 18-185-3" fill="none" stroke="#ffffff" stroke-opacity="0.28" stroke-linecap="round" stroke-width="18"/>
      <g>
        <use href="#bolt" transform="rotate(0) translate(0 -213)"/>
        <use href="#bolt" transform="rotate(45) translate(0 -213)"/>
        <use href="#bolt" transform="rotate(90) translate(0 -213)"/>
        <use href="#bolt" transform="rotate(135) translate(0 -213)"/>
        <use href="#bolt" transform="rotate(180) translate(0 -213)"/>
        <use href="#bolt" transform="rotate(225) translate(0 -213)"/>
        <use href="#bolt" transform="rotate(270) translate(0 -213)"/>
        <use href="#bolt" transform="rotate(315) translate(0 -213)"/>
      </g>
      <g fill="#101217" stroke="#e6e7e5" stroke-opacity="0.66" stroke-width="3">
        <circle cx="0" cy="-162" r="11"/>
        <circle cx="115" cy="-115" r="11"/>
        <circle cx="162" cy="0" r="11"/>
        <circle cx="115" cy="115" r="11"/>
        <circle cx="0" cy="162" r="11"/>
        <circle cx="-115" cy="115" r="11"/>
        <circle cx="-162" cy="0" r="11"/>
        <circle cx="-115" cy="-115" r="11"/>
        <circle cx="72" cy="-187" r="9"/>
        <circle cx="187" cy="-72" r="9"/>
        <circle cx="187" cy="72" r="9"/>
        <circle cx="72" cy="187" r="9"/>
        <circle cx="-72" cy="187" r="9"/>
        <circle cx="-187" cy="72" r="9"/>
        <circle cx="-187" cy="-72" r="9"/>
        <circle cx="-72" cy="-187" r="9"/>
      </g>
      <g transform="translate(-260 -4)">
        <rect x="-205" y="-41" width="258" height="82" rx="41" fill="url(#tube)" stroke="#f0f1ef" stroke-opacity="0.42" stroke-width="3"/>
        <path d="M-139-40v80M-67-37v74" stroke="#171a21" stroke-opacity="0.48" stroke-width="6"/>
        <circle cx="-201" cy="0" r="42" fill="url(#tube)" stroke="#ffffff" stroke-opacity="0.45" stroke-width="5"/>
        <circle cx="-201" cy="0" r="24" fill="#111318"/>
        <circle cx="-201" cy="0" r="13" fill="#050607"/>
      </g>
      <g transform="translate(28 8)">
        <path d="M-37-58H78c40 0 73 33 73 73v20c0 40-33 73-73 73H-37z" fill="url(#tube)" stroke="#ffffff" stroke-opacity="0.35" stroke-width="3"/>
        <circle cx="80" cy="25" r="55" fill="url(#tube)"/>
        <circle cx="80" cy="25" r="34" fill="#111318"/>
        <circle cx="80" cy="25" r="18" fill="#050607"/>
      </g>
    </g>
  </g>
  <rect width="1400" height="980" fill="none" stroke="#ffffff" stroke-opacity="0.035" stroke-width="2"/>
</svg>
