<svg preserveAspectRatio="none" width="100%" height="100%" overflow="visible" style="display: block;" viewBox="0 0 117.998 21.9235" fill="none" xmlns="http://www.w3.org/2000/svg">
<g id="Group">
<path id="Vector" d="M0 0V5.44976H8.67048L0 16.751V21.9235H16.4067V16.4406H7.61819L16.4067 5.17255V0H0Z" fill="var(--fill-0, #F8C576)"/>
<path id="Vector_2" d="M26.3808 0H19.5062V21.9219H26.3808V0Z" fill="var(--fill-0, #F8C576)"/>
<path id="Vector_3" d="M39.8803 7.33855L41.8613 13.4381H37.901L39.8803 7.33855ZM35.9476 0L27.9277 21.9219H35.141L36.2256 18.6082H43.5318L44.6156 21.9219H51.8613L43.8729 0H35.9476Z" fill="var(--fill-0, #F8C576)"/>
<path id="Vector_4" d="M57.4355 0V5.44976H63.1948V21.9219H70.0686V5.44976H75.8877V0H57.4355Z" fill="var(--fill-0, #F8C576)"/>
<path id="Vector_5" d="M84.6213 0H77.7466V21.9219H84.6213V0Z" fill="var(--fill-0, #F8C576)"/>
<path id="Vector_6" d="M87.7175 0V21.9219H101.215V16.7194H94.5873V0H87.7175Z" fill="var(--fill-0, #F8C576)"/>
<path id="Vector_7" d="M103.383 0V21.9219H117.998V16.4406H110.257V13.3444H117.068V8.17182H110.257V5.48048H117.998V0H103.383Z" fill="var(--fill-0, #F8C576)"/>
</g>
</svg>
